<svg id="OBJECTS" xmlns="http://www.w3.org/2000/svg" xmlns:xlink="http://www.w3.org/1999/xlink" viewBox="0 0 392.46 247.68"><defs><style>.cls-1{fill:url(#Degradado_sin_nombre_61);}.cls-2{fill:url(#Degradado_sin_nombre_61-2);}.cls-3{fill:url(#Degradado_sin_nombre_61-3);}.cls-4{fill:url(#Degradado_sin_nombre_61-4);}.cls-5{fill:url(#Degradado_sin_nombre_61-5);}.cls-6{fill:url(#Degradado_sin_nombre_61-6);}.cls-7{fill:url(#Degradado_sin_nombre_61-7);}.cls-8{fill:url(#Degradado_sin_nombre_61-8);}.cls-9{fill:url(#Degradado_sin_nombre_61-9);}.cls-10{fill:url(#Degradado_sin_nombre_61-10);}.cls-11{fill:url(#Degradado_sin_nombre_61-11);}.cls-12{fill:url(#Degradado_sin_nombre_61-12);}.cls-13{fill:url(#Degradado_sin_nombre_61-13);}.cls-14{fill:url(#Degradado_sin_nombre_61-14);}.cls-15{fill:url(#Degradado_sin_nombre_61-15);}.cls-16{fill:url(#Degradado_sin_nombre_61-16);}.cls-17{fill:url(#Degradado_sin_nombre_61-17);}.cls-18{fill:url(#Degradado_sin_nombre_61-18);}.cls-19{fill:url(#Degradado_sin_nombre_61-19);}.cls-20{font-size:52.15px;font-family:Brawler;}.cls-20,.cls-25{fill:#ffdca4;}.cls-21{font-size:15.24px;fill:#31251a;}.cls-21,.cls-25{font-family:Aller-Bold, Aller;font-weight:700;}.cls-22{letter-spacing:-0.01em;}.cls-23{letter-spacing:0em;}.cls-24{letter-spacing:-0.04em;}.cls-25{font-size:23px;}.cls-26{letter-spacing:-0.09em;}</style><radialGradient id="Degradado_sin_nombre_61" cx="249.46" cy="253.5" r="329.88" gradientUnits="userSpaceOnUse"><stop offset="0" stop-color="#ffbb49"/><stop offset="1" stop-color="#e86935"/></radialGradient><radialGradient id="Degradado_sin_nombre_61-2" cx="196.64" cy="127.01" r="329.88" xlink:href="#Degradado_sin_nombre_61"/><radialGradient id="Degradado_sin_nombre_61-3" cx="249.46" cy="253.5" r="329.88" xlink:href="#Degradado_sin_nombre_61"/><radialGradient id="Degradado_sin_nombre_61-4" cx="249.46" cy="253.5" r="329.88" xlink:href="#Degradado_sin_nombre_61"/><radialGradient id="Degradado_sin_nombre_61-5" cx="249.46" cy="253.5" r="329.88" xlink:href="#Degradado_sin_nombre_61"/><radialGradient id="Degradado_sin_nombre_61-6" cx="249.46" cy="253.5" r="329.88" xlink:href="#Degradado_sin_nombre_61"/><radialGradient id="Degradado_sin_nombre_61-7" cx="249.46" cy="253.5" r="329.88" xlink:href="#Degradado_sin_nombre_61"/><radialGradient id="Degradado_sin_nombre_61-8" cx="249.46" cy="253.5" r="329.88" xlink:href="#Degradado_sin_nombre_61"/><radialGradient id="Degradado_sin_nombre_61-9" cx="249.46" cy="253.5" r="329.88" xlink:href="#Degradado_sin_nombre_61"/><radialGradient id="Degradado_sin_nombre_61-10" cx="249.46" cy="253.5" r="329.88" xlink:href="#Degradado_sin_nombre_61"/><radialGradient id="Degradado_sin_nombre_61-11" cx="249.46" cy="253.5" r="329.88" xlink:href="#Degradado_sin_nombre_61"/><radialGradient id="Degradado_sin_nombre_61-12" cx="249.46" cy="253.5" r="329.88" xlink:href="#Degradado_sin_nombre_61"/><radialGradient id="Degradado_sin_nombre_61-13" cx="249.46" cy="253.5" r="329.88" xlink:href="#Degradado_sin_nombre_61"/><radialGradient id="Degradado_sin_nombre_61-14" cx="249.46" cy="253.5" r="329.88" xlink:href="#Degradado_sin_nombre_61"/><radialGradient id="Degradado_sin_nombre_61-15" cx="249.46" cy="253.5" r="329.88" xlink:href="#Degradado_sin_nombre_61"/><radialGradient id="Degradado_sin_nombre_61-16" cx="249.46" cy="253.5" r="329.88" xlink:href="#Degradado_sin_nombre_61"/><radialGradient id="Degradado_sin_nombre_61-17" cx="249.46" cy="253.5" r="329.88" xlink:href="#Degradado_sin_nombre_61"/><radialGradient id="Degradado_sin_nombre_61-18" cx="249.46" cy="253.5" r="329.88" xlink:href="#Degradado_sin_nombre_61"/><radialGradient id="Degradado_sin_nombre_61-19" cx="249.46" cy="253.5" r="329.88" xlink:href="#Degradado_sin_nombre_61"/></defs><path class="cls-1" d="M244.7,175.6a26.7,26.7,0,0,0-9.89-16.45,14.26,14.26,0,0,0-7-3.33c-3.51-.52-6.23,1.25-7,4.71a14.92,14.92,0,0,0-.24,4.22,22,22,0,0,0,3.28,9.43,26.23,26.23,0,0,0,8.69,9.2,25.57,25.57,0,0,0,7.31,2.76,5.64,5.64,0,0,1,3.49,2.36c.76,1.15,1.49,2.32,2.23,3.49q-1.56,2.32-3.11,4.66-4.14,6.18-8.29,12.37-4.27,6.36-8.58,12.69-1.51,2.26-3,4.53a6.32,6.32,0,0,0-.58,1.09c-.58,1.53-.74,3,.42,4.41l.95.58a3.55,3.55,0,0,0,2.27-.29,5.87,5.87,0,0,0,2.51-2.3c1.85-3.31,3.72-6.6,5.58-9.9l13.4-23.65.5-.88q3.26,5.3,6.5,10.58,4.13,6.7,8.28,13.4c1.74,2.82,3.47,5.66,5.23,8.46,1.29,2.06,2.73,2.73,4.89,2.34l.92-.62a4.29,4.29,0,0,0-.25-5.18c-1.54-2.21-3.18-4.36-4.78-6.53l-16.64-22.59c-.76-1-1.54-2.07-2.31-3.11,1-1.7,1.93-3.41,2.85-5.14a7.07,7.07,0,0,1,3.82-3.4,31.72,31.72,0,0,0,3.73-1.64,7.25,7.25,0,0,0,2.3-1.79,21,21,0,0,0,1.95-3.34q4.49-8.7,8.93-17.42a3.07,3.07,0,0,0,.12-.88l-.31-.19a3.47,3.47,0,0,0-.66.6c-2.85,4.39-5.68,8.79-8.53,13.17a1,1,0,0,1-.68.44c-.49-.05-.59-.44-.31-.93l5.32-9.21c.85-1.48,1.72-2.95,2.55-4.45a3.77,3.77,0,0,0,.2-.91l-.42-.26a8.29,8.29,0,0,0-.89,1q-4.11,6.31-8.19,12.64l-.2.31c-.16.3-.37.43-.7.24s-.3-.44-.14-.73c.47-.84.93-1.69,1.41-2.53,2.05-3.64,4.12-7.27,6.16-10.91a8.28,8.28,0,0,0,.44-1.3l-.53-.33a5.51,5.51,0,0,0-.76.85q-4,6.52-8,13c-.39.65-.62.7-1.16.33s-.33-.65-.12-1c1.2-2.16,2.39-4.32,3.61-6.47,1.39-2.45,2.8-4.89,4.19-7.34a2.17,2.17,0,0,0,.14-.69l-.42-.26a3.58,3.58,0,0,0-.55.47l-8.54,12.22q-1.8,2.58-3.61,5.15a1.64,1.64,0,0,1-.3.29l-.91,1.48a.25.25,0,0,1,0,.12,12.64,12.64,0,0,0-.3,7,7,7,0,0,1-1.07,5.24l-2.51,3.75-1.61-2.17a5.48,5.48,0,0,1-1.24-3.42c0-1.25.17-2.51.19-3.76A22,22,0,0,0,244.7,175.6Z" transform="translate(-52.82 -126.49)"/><rect class="cls-2" x="120.33" y="168.99" width="149.84" height="23.36" rx="11.68"/><path class="cls-3" d="M58.52,273.13a5.7,5.7,0,1,0-5.7-5.7A5.7,5.7,0,0,0,58.52,273.13Z" transform="translate(-52.82 -126.49)"/><path class="cls-4" d="M441.35,267.43a5.7,5.7,0,1,0-5.69,5.7A5.7,5.7,0,0,0,441.35,267.43Z" transform="translate(-52.82 -126.49)"/><path class="cls-5" d="M441.93,227.41H292a2,2,0,0,0,0,4H441.93a2,2,0,0,0,0-4Z" transform="translate(-52.82 -126.49)"/><path class="cls-6" d="M55.35,231.41H204.59a2,2,0,0,0,0-4H55.35a2,2,0,1,0,0,4Z" transform="translate(-52.82 -126.49)"/><path class="cls-7" d="M55.35,305.16a2,2,0,0,0,0,4H161.41a2,2,0,1,0,0-4Z" transform="translate(-52.82 -126.49)"/><path class="cls-8" d="M55.35,216.31H116a10.06,10.06,0,0,0,.07-20.12,10.78,10.78,0,0,0-7.56,2.46,9.81,9.81,0,0,0-2.94,7.59,2,2,0,0,0,4,0,6,6,0,0,1,1.64-4.63,6.83,6.83,0,0,1,4.61-1.43H116a6.06,6.06,0,1,1,0,12.12H55.35a2,2,0,0,0,0,4Z" transform="translate(-52.82 -126.49)"/><path class="cls-9" d="M443.28,320.26H362.82a10.07,10.07,0,0,0-.07,20.13,10.86,10.86,0,0,0,7.56-2.47,9.79,9.79,0,0,0,2.94-7.58,2,2,0,1,0-4,0,6,6,0,0,1-1.64,4.63A6.89,6.89,0,0,1,363,336.4h-.18a6.07,6.07,0,0,1,0-12.13h80.46a2,2,0,0,0,0-4Z" transform="translate(-52.82 -126.49)"/><path class="cls-10" d="M337.22,305.16a2,2,0,0,0,0,4H443.28a2,2,0,0,0,0-4Z" transform="translate(-52.82 -126.49)"/><path class="cls-11" d="M349.94,316.28a2,2,0,0,0-2.78.53,119.52,119.52,0,0,1-197.58.9,2,2,0,1,0-3.29,2.27,123.52,123.52,0,0,0,204.19-.93A2,2,0,0,0,349.94,316.28Z" transform="translate(-52.82 -126.49)"/><path class="cls-12" d="M131,217.23a1.91,1.91,0,0,0,.57.08,2,2,0,0,0,1.92-1.43A120.5,120.5,0,0,1,176,154.67a119.55,119.55,0,0,1,185.9,58.78,2,2,0,0,0,3.81-1.23,123.55,123.55,0,0,0-192.12-60.74,124.39,124.39,0,0,0-43.9,63.26A2,2,0,0,0,131,217.23Z" transform="translate(-52.82 -126.49)"/><path class="cls-13" d="M245.07,331.65v24a2,2,0,0,0,4,0v-24a2,2,0,0,0-4,0Z" transform="translate(-52.82 -126.49)"/><path class="cls-14" d="M233.16,331.65a2,2,0,0,0-2-2H213.08a2,2,0,0,0,0,4h18.08A2,2,0,0,0,233.16,331.65Z" transform="translate(-52.82 -126.49)"/><path class="cls-15" d="M281.92,331.65a2,2,0,0,0-2-2H261.84a2,2,0,0,0,0,4h18.08A2,2,0,0,0,281.92,331.65Z" transform="translate(-52.82 -126.49)"/><path class="cls-16" d="M232,357.75a10.08,10.08,0,0,0,10.07-10.07v-16a2,2,0,0,0-4,0v16a6.07,6.07,0,1,1-12.13,0,1.09,1.09,0,0,0,0-.18,6.89,6.89,0,0,1,1.43-4.61,6,6,0,0,1,4.63-1.64,2,2,0,0,0,0-4,9.79,9.79,0,0,0-7.58,2.94,10.88,10.88,0,0,0-2.47,7.57A10.08,10.08,0,0,0,232,357.75Z" transform="translate(-52.82 -126.49)"/><path class="cls-17" d="M254.11,329.65a2,2,0,0,0-2,2v16a10.07,10.07,0,0,0,20.13.08,10.88,10.88,0,0,0-2.47-7.57,9.79,9.79,0,0,0-7.58-2.94,2,2,0,0,0,0,4,6,6,0,0,1,4.61,1.62,6.9,6.9,0,0,1,1.45,4.63,1.09,1.09,0,0,0,0,.18,6.07,6.07,0,1,1-12.13,0v-16A2,2,0,0,0,254.11,329.65Z" transform="translate(-52.82 -126.49)"/><path class="cls-18" d="M380.77,216.29l.24,0h60.34a2,2,0,0,0,0-4H381.24a6.06,6.06,0,0,1,0-12.12h.18a6.83,6.83,0,0,1,4.61,1.43,6,6,0,0,1,1.64,4.63,2,2,0,1,0,4,0,9.81,9.81,0,0,0-2.94-7.59,10.78,10.78,0,0,0-7.56-2.46,10.06,10.06,0,0,0-.4,20.1Z" transform="translate(-52.82 -126.49)"/><path class="cls-19" d="M134,320.26H55.35a2,2,0,0,0,0,4H134a6.07,6.07,0,0,1,0,12.13h-.19a6.92,6.92,0,0,1-4.61-1.43,6,6,0,0,1-1.63-4.63,2,2,0,0,0-4,0,9.79,9.79,0,0,0,2.94,7.58,10.86,10.86,0,0,0,7.56,2.47,10.07,10.07,0,0,0-.07-20.13Z" transform="translate(-52.82 -126.49)"/><text class="cls-20" transform="translate(20.09 156.53)">G i o v a n n i</text><text class="cls-21" transform="translate(131.61 186.38)">RET<tspan class="cls-22" x="26.04" y="0">R</tspan><tspan class="cls-23" x="35.2" y="0">O KI</tspan><tspan class="cls-24" x="63.41" y="0">T</tspan><tspan x="71.47" y="0">CHEN</tspan></text><text class="cls-25" transform="translate(102.54 75.21)">ES<tspan class="cls-26" x="24.86" y="0">T</tspan><tspan x="35.81" y="0">.</tspan></text><text class="cls-25" transform="translate(222.84 75.21)">1982</text></svg>